<svg xmlns="http://www.w3.org/2000/svg" xmlns:xlink="http://www.w3.org/1999/xlink" width="500" zoomAndPan="magnify" viewBox="0 0 375 374.999991" height="500" preserveAspectRatio="xMidYMid meet" version="1.0"><defs><g/><clipPath id="id1"><path d="M 227 33 L 304.449219 33 L 304.449219 262.1875 L 227 262.1875 Z M 227 33 " clip-rule="nonzero"/></clipPath><clipPath id="id2"><path d="M 69.699219 28.1875 L 238 28.1875 L 238 262.1875 L 69.699219 262.1875 Z M 69.699219 28.1875 " clip-rule="nonzero"/></clipPath></defs><g fill="rgb(0%, 7.058716%, 16.079712%)" fill-opacity="1"><g transform="translate(6.726798, 333.03914)"><g><path d="M 37.007812 -19.105469 C 37.007812 -20.875 37.082031 -22.714844 37.082031 -24.484375 C 37.082031 -26.253906 37.007812 -28.023438 37.007812 -29.863281 L 37.007812 -35.167969 C 37.007812 -35.453125 37.082031 -35.734375 37.082031 -35.949219 C 37.082031 -36.019531 37.082031 -36.089844 37.007812 -36.160156 C 37.007812 -36.371094 36.867188 -36.515625 36.867188 -36.726562 C 36.796875 -37.007812 36.867188 -37.292969 36.726562 -37.574219 C 36.65625 -37.859375 36.515625 -38.070312 36.300781 -38.355469 C 36.019531 -38.777344 35.523438 -39.132812 34.957031 -39.273438 C 34.746094 -39.414062 34.460938 -39.558594 34.25 -39.558594 C 33.894531 -39.558594 33.613281 -39.414062 33.328125 -39.34375 C 32.90625 -39.203125 32.480469 -39.0625 32.199219 -38.777344 C 31.84375 -38.496094 31.632812 -38.140625 31.417969 -37.789062 L 31.207031 -37.152344 C 31.136719 -37.007812 30.925781 -36.867188 30.851562 -36.65625 C 30.78125 -36.371094 30.851562 -36.019531 30.851562 -35.734375 C 30.78125 -35.167969 30.710938 -34.53125 30.710938 -33.964844 C 30.710938 -32.269531 30.851562 -30.5 30.851562 -28.730469 C 30.851562 -27.03125 30.78125 -25.261719 30.78125 -23.5625 C 30.78125 -21.796875 30.78125 -20.097656 30.78125 -18.328125 L 30.78125 -13.160156 C 30.78125 -11.394531 30.851562 -9.695312 30.851562 -7.925781 C 30.851562 -6.226562 30.710938 -4.457031 30.710938 -2.761719 C 30.710938 -2.335938 30.78125 -1.910156 30.640625 -1.558594 C 30.570312 -1.132812 30.429688 -0.847656 30.144531 -0.566406 C 29.933594 -0.425781 29.792969 -0.28125 29.578125 -0.210938 C 29.296875 -0.140625 28.941406 -0.140625 28.589844 -0.140625 C 28.445312 -0.140625 28.304688 -0.140625 28.09375 -0.210938 C 27.882812 -0.210938 27.667969 -0.140625 27.457031 -0.0703125 L 27.316406 -0.0703125 C 26.324219 -0.0703125 25.332031 -0.0703125 24.34375 -0.0703125 L 23.5625 -0.0703125 C 23.492188 -0.0703125 23.421875 -0.140625 23.351562 -0.0703125 L 23.28125 -0.140625 C 23.070312 -0.140625 22.855469 -0.0703125 22.714844 -0.140625 C 22.644531 -0.140625 22.644531 -0.0703125 22.644531 -0.0703125 C 22.363281 -0.0703125 22.078125 -0.140625 21.796875 -0.28125 C 21.441406 -0.425781 21.230469 -0.777344 21.015625 -1.132812 C 20.945312 -1.34375 20.875 -1.558594 20.875 -1.769531 C 20.804688 -1.980469 20.804688 -2.121094 20.804688 -2.335938 C 20.734375 -2.832031 20.804688 -3.398438 20.804688 -3.890625 C 20.804688 -5.660156 20.875 -7.359375 20.875 -9.128906 C 20.875 -10.828125 20.804688 -12.523438 20.804688 -14.292969 L 20.804688 -19.460938 C 20.804688 -21.160156 20.875 -22.925781 20.875 -24.625 C 20.875 -26.394531 20.804688 -28.09375 20.804688 -29.792969 C 20.804688 -31.5625 20.945312 -33.257812 20.945312 -35.027344 C 20.945312 -35.3125 20.734375 -35.59375 20.734375 -35.949219 C 20.664062 -36.160156 20.734375 -36.445312 20.734375 -36.726562 L 20.734375 -37.007812 C 20.59375 -37.363281 20.378906 -37.644531 20.238281 -37.929688 C 20.097656 -38.140625 20.097656 -38.425781 19.882812 -38.636719 C 19.8125 -38.707031 19.671875 -38.777344 19.53125 -38.921875 C 19.246094 -39.132812 18.894531 -39.273438 18.46875 -39.414062 C 18.328125 -39.414062 18.117188 -39.558594 17.902344 -39.484375 L 17.621094 -39.414062 C 17.265625 -39.414062 17.054688 -39.273438 16.699219 -39.132812 C 16.417969 -38.992188 16.0625 -38.777344 15.851562 -38.566406 C 15.710938 -38.425781 15.566406 -38.355469 15.496094 -38.210938 C 15.144531 -37.71875 14.789062 -37.222656 14.648438 -36.65625 C 14.648438 -36.371094 14.71875 -36.089844 14.71875 -35.878906 L 14.71875 -35.734375 C 14.648438 -35.3125 14.578125 -34.886719 14.578125 -34.460938 C 14.578125 -32.765625 14.648438 -31.136719 14.648438 -29.4375 C 14.648438 -27.738281 14.578125 -26.042969 14.578125 -24.34375 L 14.578125 -19.320312 C 14.578125 -17.621094 14.648438 -15.921875 14.648438 -14.222656 C 14.648438 -12.523438 14.648438 -10.898438 14.648438 -9.199219 L 14.648438 -4.105469 C 14.648438 -3.820312 14.648438 -3.46875 14.648438 -3.113281 L 14.648438 -1.980469 C 14.648438 -1.628906 14.4375 -1.34375 14.222656 -1.0625 C 14.082031 -0.777344 13.941406 -0.425781 13.65625 -0.28125 C 13.445312 -0.210938 13.234375 -0.140625 13.019531 -0.140625 C 12.878906 -0.0703125 12.738281 -0.140625 12.523438 -0.140625 C 12.453125 -0.0703125 12.3125 -0.140625 12.242188 -0.0703125 L 12.171875 -0.0703125 C 11.816406 -0.140625 11.535156 -0.0703125 11.25 0 L 11.109375 0 C 10.121094 0 9.128906 -0.210938 8.136719 -0.210938 C 7.855469 -0.210938 7.640625 -0.140625 7.359375 -0.0703125 C 7.289062 -0.0703125 7.21875 -0.140625 7.148438 -0.140625 C 7.078125 -0.140625 7.078125 -0.210938 7.078125 -0.210938 C 6.722656 -0.210938 6.441406 -0.210938 6.15625 -0.28125 C 5.875 -0.355469 5.589844 -0.355469 5.378906 -0.566406 C 5.164062 -0.707031 5.09375 -0.847656 5.023438 -1.0625 C 4.882812 -1.34375 4.671875 -1.628906 4.671875 -1.980469 C 4.671875 -2.335938 4.742188 -2.6875 4.742188 -3.042969 L 4.742188 -3.253906 C 4.671875 -3.890625 4.601562 -4.527344 4.601562 -5.164062 C 4.601562 -5.800781 4.742188 -6.441406 4.742188 -7.078125 C 4.742188 -8.773438 4.601562 -10.542969 4.601562 -12.3125 C 4.601562 -14.082031 4.601562 -15.851562 4.601562 -17.621094 L 4.601562 -22.855469 C 4.601562 -24.625 4.671875 -26.394531 4.671875 -28.09375 L 4.671875 -33.402344 C 4.742188 -34.25 4.527344 -35.167969 4.601562 -36.019531 C 4.601562 -36.300781 4.742188 -36.585938 4.742188 -36.867188 C 4.8125 -37.082031 4.671875 -37.222656 4.671875 -37.433594 C 4.742188 -37.644531 4.8125 -37.859375 4.8125 -38 C 4.882812 -38.566406 5.09375 -39.0625 5.238281 -39.628906 C 5.238281 -39.769531 5.308594 -39.910156 5.308594 -39.980469 C 5.308594 -40.125 5.238281 -40.195312 5.238281 -40.335938 C 5.378906 -40.546875 5.519531 -40.761719 5.660156 -41.042969 C 5.730469 -41.253906 5.730469 -41.46875 5.800781 -41.679688 C 5.875 -41.75 5.945312 -41.890625 5.945312 -41.964844 C 6.296875 -42.601562 6.722656 -43.167969 7.148438 -43.804688 C 7.429688 -44.15625 7.714844 -44.511719 7.996094 -44.792969 C 8.28125 -45.148438 8.5625 -45.5 8.917969 -45.855469 C 9.199219 -46.136719 9.410156 -46.421875 9.765625 -46.632812 C 9.976562 -46.847656 10.261719 -46.988281 10.542969 -47.199219 C 10.898438 -47.410156 11.109375 -47.695312 11.394531 -47.90625 C 11.816406 -48.121094 12.242188 -48.261719 12.597656 -48.472656 C 12.878906 -48.542969 13.089844 -48.6875 13.375 -48.757812 C 13.515625 -48.828125 13.726562 -48.828125 13.941406 -48.898438 C 14.222656 -48.96875 14.507812 -48.96875 14.789062 -49.039062 C 15.144531 -49.109375 15.566406 -49.324219 15.921875 -49.394531 C 16.203125 -49.394531 16.417969 -49.324219 16.699219 -49.394531 L 16.984375 -49.394531 C 17.480469 -49.464844 18.042969 -49.535156 18.539062 -49.535156 C 19.246094 -49.464844 19.957031 -49.324219 19.601562 -49.394531 C 19.957031 -49.324219 20.378906 -49.324219 20.734375 -49.25 C 21.015625 -49.179688 21.230469 -49.039062 21.441406 -48.96875 C 21.722656 -48.828125 22.078125 -48.828125 22.363281 -48.757812 C 22.644531 -48.613281 23 -48.542969 23.28125 -48.402344 C 23.636719 -48.261719 23.988281 -48.121094 24.34375 -47.90625 C 24.625 -47.765625 24.765625 -47.410156 25.121094 -47.269531 C 25.332031 -47.199219 25.617188 -47.199219 25.828125 -47.128906 C 26.042969 -47.128906 26.253906 -47.128906 26.394531 -47.199219 C 26.75 -47.269531 27.03125 -47.554688 27.316406 -47.695312 C 27.808594 -47.976562 28.234375 -48.191406 28.730469 -48.402344 C 29.011719 -48.472656 29.296875 -48.6875 29.648438 -48.757812 C 29.863281 -48.828125 30.074219 -48.828125 30.285156 -48.898438 C 30.640625 -48.96875 30.996094 -49.179688 31.347656 -49.25 C 31.703125 -49.394531 32.054688 -49.324219 32.410156 -49.394531 C 33.894531 -49.535156 37.71875 -49.605469 35.382812 -49.464844 C 35.878906 -49.394531 36.371094 -49.25 36.867188 -49.179688 L 37.644531 -49.039062 C 38.070312 -48.96875 38.496094 -48.757812 38.921875 -48.542969 C 39.414062 -48.332031 39.980469 -48.121094 40.476562 -47.835938 L 41.113281 -47.484375 C 41.398438 -47.269531 41.609375 -47.058594 41.890625 -46.917969 L 42.316406 -46.492188 C 42.386719 -46.492188 42.316406 -46.421875 42.316406 -46.421875 C 42.671875 -46.136719 43.023438 -45.925781 43.308594 -45.644531 C 43.730469 -45.148438 44.15625 -44.652344 44.511719 -44.15625 C 44.792969 -43.804688 44.933594 -43.378906 45.078125 -42.953125 C 45.289062 -42.601562 45.570312 -42.316406 45.714844 -41.964844 C 45.925781 -41.609375 45.996094 -41.183594 46.136719 -40.761719 C 46.351562 -40.265625 46.492188 -39.839844 46.5625 -39.414062 C 46.703125 -38.992188 46.773438 -38.636719 46.847656 -38.285156 C 46.917969 -37.929688 46.773438 -37.644531 46.773438 -37.363281 C 46.773438 -37.152344 46.988281 -36.9375 46.988281 -36.726562 C 46.988281 -36.65625 46.917969 -36.585938 46.917969 -36.515625 L 46.988281 -36.089844 C 47.058594 -36.089844 46.917969 -34.886719 46.917969 -34.957031 C 46.917969 -34.53125 47.058594 -34.179688 47.058594 -33.753906 C 47.058594 -33.402344 46.917969 -33.046875 46.917969 -32.621094 C 46.917969 -30.996094 47.058594 -29.296875 47.058594 -27.667969 L 47.058594 -22.644531 C 47.058594 -21.015625 47.058594 -19.320312 47.058594 -17.691406 L 47.058594 -12.667969 C 47.058594 -11.039062 46.917969 -9.339844 46.917969 -7.714844 C 46.917969 -6.085938 46.988281 -4.386719 46.988281 -2.761719 C 46.988281 -2.335938 46.988281 -1.910156 46.917969 -1.558594 C 46.773438 -1.132812 46.5625 -0.847656 46.28125 -0.566406 C 46.136719 -0.425781 45.925781 -0.355469 45.714844 -0.28125 C 45.429688 -0.140625 45.078125 -0.210938 44.792969 -0.210938 C 44.722656 -0.210938 44.652344 -0.0703125 44.652344 -0.0703125 L 44.511719 -0.0703125 C 44.226562 -0.140625 43.945312 -0.0703125 43.660156 0 C 43.589844 0 43.519531 -0.140625 43.519531 -0.140625 C 42.527344 -0.140625 41.539062 -0.0703125 40.476562 -0.140625 L 39.769531 -0.140625 C 39.699219 -0.140625 39.628906 -0.0703125 39.558594 -0.0703125 C 39.484375 -0.0703125 39.484375 0 39.484375 0 C 39.273438 -0.0703125 39.0625 -0.140625 38.847656 -0.140625 C 38.847656 -0.140625 38.847656 -0.210938 38.777344 -0.210938 C 38.566406 -0.210938 38.285156 -0.210938 38 -0.28125 C 37.71875 -0.425781 37.503906 -0.707031 37.363281 -0.992188 C 37.222656 -1.273438 37.082031 -1.484375 37.082031 -1.769531 C 37.082031 -1.980469 37.152344 -2.195312 37.082031 -2.335938 C 37.007812 -2.902344 37.082031 -3.46875 37.082031 -3.960938 C 37.082031 -5.660156 37.082031 -7.359375 37.082031 -9.058594 L 37.082031 -14.082031 C 37.082031 -15.78125 37.082031 -17.40625 37.082031 -19.105469 Z M 37.007812 -19.105469 "/></g></g></g><g fill="rgb(0%, 7.058716%, 16.079712%)" fill-opacity="1"><g transform="translate(61.991145, 333.03914)"><g><path d="M 31.488281 -30.925781 C 31.488281 -29.011719 31.703125 -27.101562 31.703125 -25.121094 C 31.703125 -23.210938 31.632812 -21.230469 31.632812 -19.320312 L 31.632812 -13.515625 C 31.632812 -13.304688 31.488281 -13.089844 31.488281 -12.878906 C 31.5625 -12.667969 31.632812 -12.523438 31.632812 -12.382812 C 31.632812 -12.03125 31.5625 -11.746094 31.488281 -11.394531 C 31.417969 -11.039062 31.347656 -10.683594 31.277344 -10.402344 L 31.066406 -9.058594 C 30.996094 -8.917969 30.925781 -8.703125 30.925781 -8.5625 C 30.851562 -8.492188 30.78125 -8.421875 30.78125 -8.351562 C 30.640625 -7.996094 30.570312 -7.640625 30.429688 -7.359375 C 30.214844 -6.933594 29.863281 -6.511719 29.578125 -6.085938 C 29.4375 -5.730469 29.296875 -5.378906 29.011719 -5.09375 C 28.800781 -4.8125 28.589844 -4.527344 28.375 -4.246094 L 27.527344 -3.398438 C 27.316406 -3.253906 27.101562 -3.042969 26.960938 -2.902344 C 26.679688 -2.617188 26.324219 -2.476562 26.042969 -2.195312 C 25.6875 -1.980469 25.332031 -1.699219 24.910156 -1.484375 C 24.625 -1.34375 24.34375 -1.132812 23.988281 -0.992188 C 23.5625 -0.777344 23.210938 -0.496094 22.785156 -0.28125 C 22.503906 -0.210938 22.21875 -0.210938 22.007812 -0.140625 C 21.867188 -0.0703125 21.652344 -0.0703125 21.511719 0 C 21.441406 0 21.441406 0.0703125 21.371094 0.140625 C 20.875 0.210938 20.449219 0.210938 19.957031 0.210938 C 19.742188 0.28125 19.460938 0.355469 19.246094 0.355469 L 18.964844 0.355469 C 18.894531 0.355469 18.753906 0.425781 18.683594 0.425781 L 18.683594 0.355469 C 18.46875 0.28125 18.257812 0.566406 18.042969 0.496094 C 17.761719 0.496094 17.480469 0.496094 17.125 0.425781 C 16.84375 0.425781 16.488281 0.425781 16.203125 0.355469 C 15.851562 0.28125 15.496094 0.210938 15.074219 0.140625 L 14.507812 0 C 14.082031 -0.140625 13.65625 -0.355469 13.234375 -0.496094 C 12.738281 -0.707031 12.171875 -0.847656 11.675781 -1.132812 C 11.179688 -1.414062 10.828125 -1.839844 10.402344 -2.121094 C 10.046875 -2.335938 9.765625 -2.617188 9.480469 -2.832031 C 9.058594 -3.183594 8.632812 -3.398438 8.28125 -3.75 C 8.066406 -3.960938 7.925781 -4.386719 7.714844 -4.601562 C 7.429688 -4.953125 7.148438 -5.378906 6.933594 -5.730469 C 6.652344 -6.15625 6.226562 -6.582031 6.015625 -7.078125 C 5.730469 -7.570312 5.660156 -8.207031 5.449219 -8.773438 L 5.164062 -9.695312 C 5.164062 -9.976562 5.023438 -10.191406 4.953125 -10.472656 C 4.882812 -10.683594 4.882812 -10.898438 4.8125 -11.179688 C 4.742188 -11.464844 4.8125 -11.816406 4.8125 -12.171875 C 4.8125 -12.382812 4.601562 -12.597656 4.601562 -12.808594 L 4.601562 -13.304688 C 4.601562 -15.003906 4.671875 -16.699219 4.671875 -18.398438 C 4.671875 -20.027344 4.742188 -21.722656 4.742188 -23.421875 C 4.742188 -25.121094 4.671875 -26.820312 4.671875 -28.445312 C 4.671875 -30.144531 4.671875 -31.84375 4.671875 -33.542969 L 4.671875 -38.566406 C 4.671875 -40.265625 4.742188 -41.964844 4.742188 -43.589844 C 4.742188 -45.289062 4.671875 -46.988281 4.671875 -48.6875 C 4.671875 -48.828125 4.742188 -48.96875 4.8125 -49.179688 C 4.882812 -49.324219 4.882812 -49.535156 5.09375 -49.605469 L 5.308594 -49.605469 C 6.652344 -49.605469 7.996094 -49.464844 9.269531 -49.464844 C 10.613281 -49.464844 11.886719 -49.535156 13.234375 -49.535156 C 13.304688 -49.535156 13.375 -49.464844 13.515625 -49.464844 C 13.65625 -49.464844 13.871094 -49.394531 13.871094 -49.324219 C 13.941406 -49.179688 13.941406 -49.039062 13.941406 -48.898438 C 13.941406 -48.828125 13.871094 -48.757812 13.871094 -48.6875 C 13.871094 -46.988281 13.941406 -45.359375 13.941406 -43.660156 L 13.941406 -38.707031 C 13.941406 -37.082031 13.800781 -35.382812 13.800781 -33.753906 C 13.800781 -32.054688 13.871094 -30.429688 13.871094 -28.730469 C 13.871094 -27.101562 13.800781 -25.402344 13.800781 -23.777344 L 13.800781 -18.824219 C 13.800781 -17.125 13.800781 -15.496094 13.800781 -13.800781 L 13.800781 -13.445312 C 13.726562 -13.445312 13.941406 -13.375 13.941406 -13.304688 C 13.941406 -13.160156 13.800781 -13.019531 13.800781 -12.949219 C 13.871094 -12.738281 13.871094 -12.453125 13.941406 -12.242188 C 14.011719 -11.886719 14.152344 -11.535156 14.292969 -11.179688 C 14.4375 -10.898438 14.648438 -10.683594 14.859375 -10.402344 C 15.144531 -10.046875 15.496094 -9.765625 15.921875 -9.480469 C 16.277344 -9.269531 16.699219 -9.058594 17.125 -8.988281 C 17.40625 -8.84375 17.691406 -8.773438 17.972656 -8.773438 C 18.46875 -8.773438 18.894531 -8.917969 19.390625 -9.058594 C 19.882812 -9.199219 20.378906 -9.410156 20.804688 -9.765625 C 21.015625 -9.90625 21.160156 -10.046875 21.300781 -10.191406 C 21.441406 -10.332031 21.652344 -10.472656 21.722656 -10.613281 C 21.9375 -10.96875 22.078125 -11.320312 22.148438 -11.675781 C 22.289062 -11.960938 22.433594 -12.242188 22.433594 -12.523438 C 22.433594 -12.738281 22.503906 -12.949219 22.503906 -13.160156 C 22.503906 -13.234375 22.503906 -13.304688 22.503906 -13.304688 L 22.503906 -13.515625 C 22.503906 -13.65625 22.289062 -13.800781 22.289062 -13.941406 C 22.289062 -15.640625 22.433594 -17.265625 22.433594 -18.964844 C 22.433594 -20.59375 22.363281 -22.21875 22.363281 -23.917969 L 22.363281 -28.871094 C 22.363281 -30.5 22.503906 -32.125 22.503906 -33.824219 C 22.503906 -35.453125 22.363281 -37.082031 22.363281 -38.777344 C 22.363281 -40.40625 22.433594 -42.035156 22.433594 -43.730469 C 22.433594 -45.359375 22.503906 -46.988281 22.503906 -48.6875 C 22.503906 -48.828125 22.363281 -48.96875 22.433594 -49.109375 C 22.503906 -49.394531 22.644531 -49.464844 22.925781 -49.464844 C 23 -49.464844 23.070312 -49.605469 23.070312 -49.605469 C 24.414062 -49.605469 25.6875 -49.464844 27.03125 -49.464844 C 28.304688 -49.464844 29.648438 -49.605469 30.925781 -49.605469 C 31.066406 -49.605469 31.136719 -49.605469 31.277344 -49.535156 C 31.417969 -49.535156 31.488281 -49.394531 31.488281 -49.25 L 31.632812 -48.898438 C 31.632812 -48.828125 31.488281 -48.6875 31.488281 -48.613281 C 31.488281 -46.703125 31.632812 -44.722656 31.632812 -42.742188 C 31.632812 -40.761719 31.5625 -38.777344 31.5625 -36.867188 C 31.5625 -34.886719 31.488281 -32.90625 31.488281 -30.925781 Z M 31.488281 -30.925781 "/></g></g></g><g fill="rgb(0%, 7.058716%, 16.079712%)" fill-opacity="1"><g transform="translate(101.900496, 333.03914)"><g><path d="M 15.496094 -49.886719 C 15.003906 -49.886719 14.507812 -49.746094 14.082031 -49.746094 C 14.011719 -49.746094 14.011719 -49.746094 13.941406 -49.746094 L 13.65625 -49.746094 C 13.585938 -49.746094 13.515625 -49.746094 13.445312 -49.746094 L 13.304688 -49.746094 C 13.019531 -49.746094 12.667969 -49.746094 12.3125 -49.675781 C 11.746094 -49.535156 11.179688 -49.324219 10.613281 -49.109375 C 10.121094 -48.96875 9.554688 -48.757812 9.058594 -48.472656 C 8.5625 -48.191406 7.996094 -48.046875 7.570312 -47.695312 C 7.21875 -47.410156 6.792969 -47.058594 6.441406 -46.703125 L 6.511719 -46.5625 C 6.296875 -46.421875 6.015625 -46.351562 5.945312 -46.207031 C 5.945312 -46.207031 6.015625 -46.136719 6.015625 -46.066406 L 5.800781 -45.925781 C 5.589844 -45.714844 5.449219 -45.570312 5.238281 -45.359375 L 4.457031 -44.367188 C 4.175781 -43.945312 3.890625 -43.519531 3.679688 -43.023438 C 3.539062 -42.882812 3.539062 -42.671875 3.398438 -42.457031 C 3.183594 -42.105469 2.972656 -41.679688 2.832031 -41.253906 C 2.617188 -40.832031 2.617188 -40.335938 2.476562 -39.910156 L 2.265625 -39.203125 C 2.195312 -38.847656 1.980469 -38.566406 1.910156 -38.210938 C 1.839844 -37.859375 1.910156 -37.503906 1.910156 -37.152344 C 1.839844 -36.9375 1.839844 -36.65625 1.769531 -36.371094 C 1.769531 -36.371094 1.839844 -36.300781 1.769531 -36.300781 C 1.769531 -36.019531 1.769531 -35.734375 1.839844 -35.523438 C 1.839844 -35.167969 1.769531 -34.886719 1.769531 -34.605469 C 1.769531 -34.460938 1.910156 -34.25 1.910156 -34.109375 L 2.121094 -32.976562 C 2.195312 -32.691406 2.121094 -32.339844 2.195312 -32.054688 C 2.335938 -31.632812 2.617188 -31.277344 2.761719 -30.925781 C 2.832031 -30.640625 2.832031 -30.359375 2.972656 -30.144531 C 3.113281 -29.722656 3.324219 -29.367188 3.539062 -28.941406 C 3.75 -28.660156 3.890625 -28.234375 4.175781 -27.808594 C 4.386719 -27.457031 4.742188 -27.171875 5.023438 -26.820312 C 5.308594 -26.394531 5.519531 -25.898438 5.800781 -25.476562 C 6.015625 -25.121094 6.296875 -24.839844 6.582031 -24.484375 C 6.863281 -24.128906 7.078125 -23.707031 7.359375 -23.351562 C 7.570312 -23.070312 7.714844 -22.714844 7.925781 -22.433594 L 8.988281 -21.160156 C 9.339844 -20.59375 9.625 -20.027344 10.046875 -19.460938 C 10.332031 -19.105469 10.613281 -18.824219 10.828125 -18.398438 C 11.179688 -17.972656 11.605469 -17.480469 11.886719 -16.984375 C 12.171875 -16.558594 12.3125 -16.132812 12.453125 -15.640625 C 12.597656 -15.214844 12.667969 -14.789062 12.667969 -14.363281 C 12.667969 -14.082031 12.738281 -13.871094 12.738281 -13.585938 L 12.738281 -13.445312 C 12.738281 -13.234375 12.597656 -13.089844 12.523438 -12.949219 C 12.453125 -12.738281 12.3125 -12.523438 12.242188 -12.242188 C 12.101562 -12.03125 11.960938 -11.746094 11.746094 -11.464844 C 11.464844 -11.109375 11.179688 -10.828125 10.828125 -10.542969 C 10.542969 -10.402344 10.261719 -10.121094 9.90625 -9.976562 C 9.480469 -9.765625 8.988281 -9.554688 8.492188 -9.410156 C 8.066406 -9.269531 7.640625 -9.269531 7.21875 -9.269531 C 6.933594 -9.199219 6.722656 -9.199219 6.441406 -9.199219 C 6.367188 -9.199219 6.15625 -9.058594 6.085938 -9.058594 C 6.015625 -9.058594 5.945312 -9.058594 5.945312 -9.058594 L 5.875 -9.058594 C 5.660156 -9.058594 5.519531 -9.199219 5.308594 -9.199219 C 5.164062 -9.199219 4.953125 -9.269531 4.742188 -9.269531 C 4.671875 -9.269531 4.671875 -9.269531 4.601562 -9.269531 L 4.316406 -9.269531 C 4.246094 -9.269531 4.175781 -9.269531 4.105469 -9.269531 L 3.960938 -9.269531 C 3.75 -9.269531 3.253906 -9.339844 3.113281 -9.269531 C 2.972656 -9.128906 2.972656 -8.988281 2.972656 -8.773438 C 2.972656 -8.632812 2.832031 -8.421875 2.832031 -8.28125 L 2.832031 -1.628906 C 2.832031 -1.414062 2.972656 -1.203125 3.042969 -0.992188 C 3.042969 -0.707031 3.183594 -0.566406 3.398438 -0.425781 C 3.539062 -0.355469 3.75 -0.210938 3.960938 -0.140625 C 4.316406 0 4.671875 0.0703125 5.023438 0.140625 C 5.378906 0.210938 5.730469 0.210938 5.945312 0.28125 C 6.296875 0.355469 6.652344 0.496094 6.933594 0.566406 L 7.078125 0.566406 C 7.148438 0.566406 7.289062 0.496094 7.429688 0.496094 L 9.058594 0.566406 C 9.058594 0.566406 9.058594 0.566406 9.128906 0.566406 L 9.128906 0.425781 C 9.128906 0.425781 9.199219 0.425781 9.199219 0.425781 L 9.554688 0.425781 C 9.695312 0.496094 9.765625 0.496094 9.90625 0.496094 L 9.976562 0.496094 C 10.472656 0.425781 10.898438 0.355469 11.394531 0.210938 C 12.03125 0.0703125 12.597656 -0.28125 13.234375 -0.566406 C 13.800781 -0.777344 14.363281 -0.847656 14.789062 -1.132812 C 15.144531 -1.34375 15.496094 -1.558594 15.78125 -1.769531 L 16.347656 -2.195312 C 16.628906 -2.40625 16.984375 -2.617188 17.265625 -2.902344 C 17.480469 -3.042969 17.691406 -3.253906 17.902344 -3.46875 C 18.257812 -3.75 18.609375 -4.035156 18.964844 -4.457031 C 19.105469 -4.601562 19.246094 -4.8125 19.390625 -5.023438 C 19.671875 -5.308594 19.882812 -5.660156 20.097656 -6.015625 C 20.378906 -6.367188 20.449219 -6.792969 20.664062 -7.21875 C 20.945312 -7.785156 21.371094 -8.28125 21.582031 -8.84375 C 21.796875 -9.480469 22.007812 -10.121094 22.148438 -10.757812 L 22.363281 -11.816406 C 22.433594 -12.171875 22.433594 -12.523438 22.433594 -12.878906 C 22.503906 -13.160156 22.503906 -13.445312 22.574219 -13.726562 L 22.503906 -13.800781 C 22.574219 -14.082031 22.574219 -14.363281 22.574219 -14.648438 L 22.574219 -15.496094 C 22.574219 -15.710938 22.503906 -15.851562 22.503906 -16.0625 C 22.433594 -16.277344 22.503906 -16.488281 22.433594 -16.699219 C 22.363281 -17.125 22.289062 -17.621094 22.148438 -18.042969 L 21.722656 -19.460938 C 21.652344 -19.671875 21.511719 -19.882812 21.371094 -20.097656 C 21.230469 -20.449219 21.015625 -20.875 20.804688 -21.230469 C 20.734375 -21.441406 20.59375 -21.652344 20.449219 -21.867188 C 20.238281 -22.148438 20.167969 -22.433594 19.957031 -22.714844 C 19.742188 -23 19.390625 -23.210938 19.246094 -23.5625 C 18.964844 -23.847656 18.824219 -24.203125 18.609375 -24.554688 L 18.042969 -25.402344 C 17.761719 -25.6875 17.621094 -26.042969 17.40625 -26.394531 C 17.125 -26.75 16.84375 -27.03125 16.558594 -27.457031 C 16.347656 -27.738281 16.0625 -28.023438 15.851562 -28.375 C 15.566406 -28.730469 15.355469 -29.011719 15.074219 -29.367188 L 14.363281 -30.214844 C 14.222656 -30.5 14.011719 -30.78125 13.800781 -31.066406 C 13.585938 -31.417969 13.375 -31.773438 13.089844 -32.054688 C 12.878906 -32.410156 12.738281 -32.765625 12.523438 -33.046875 C 12.382812 -33.257812 12.3125 -33.472656 12.171875 -33.753906 L 11.746094 -34.746094 C 11.675781 -35.097656 11.535156 -35.453125 11.535156 -35.878906 L 11.605469 -36.160156 C 11.605469 -36.515625 11.816406 -36.867188 11.960938 -37.222656 C 12.03125 -37.433594 11.960938 -37.644531 12.03125 -37.859375 C 12.101562 -38.140625 12.3125 -38.355469 12.453125 -38.566406 L 12.949219 -39.203125 C 13.160156 -39.414062 13.445312 -39.628906 13.726562 -39.769531 C 14.011719 -40.050781 14.292969 -40.195312 14.578125 -40.40625 C 15.003906 -40.546875 15.425781 -40.6875 15.921875 -40.761719 C 16.203125 -40.761719 16.417969 -40.832031 16.628906 -40.832031 L 16.84375 -40.832031 C 16.984375 -40.761719 17.195312 -40.6875 17.335938 -40.6875 L 17.40625 -40.6875 C 17.691406 -40.761719 17.832031 -40.902344 17.902344 -41.113281 C 17.972656 -41.253906 17.972656 -41.398438 17.972656 -41.539062 C 17.972656 -42.742188 18.042969 -43.945312 18.042969 -45.148438 L 17.902344 -45.148438 C 17.902344 -46.207031 17.902344 -47.269531 17.902344 -48.332031 L 17.902344 -48.757812 C 17.902344 -48.96875 17.972656 -49.179688 17.832031 -49.394531 C 17.761719 -49.464844 17.621094 -49.464844 17.550781 -49.535156 C 17.335938 -49.605469 17.195312 -49.675781 17.054688 -49.675781 C 17.054688 -49.746094 16.984375 -49.746094 16.984375 -49.746094 C 16.914062 -49.746094 16.914062 -49.675781 16.84375 -49.675781 C 16.769531 -49.675781 16.699219 -49.675781 16.628906 -49.675781 L 16.558594 -49.675781 C 16.558594 -49.675781 15.285156 -49.960938 15.496094 -49.886719 Z M 15.496094 -49.886719 "/></g></g></g><g fill="rgb(0%, 7.058716%, 16.079712%)" fill-opacity="1"><g transform="translate(129.851335, 333.03914)"><g><path d="M 28.234375 -49.886719 C 28.800781 -49.886719 29.4375 -50.03125 30.003906 -50.03125 C 30.359375 -50.03125 30.710938 -49.886719 31.066406 -49.746094 C 31.277344 -49.675781 31.632812 -49.675781 31.773438 -49.464844 C 31.84375 -49.394531 31.84375 -49.25 31.914062 -49.179688 C 32.054688 -48.96875 32.125 -48.757812 32.199219 -48.542969 C 32.410156 -47.695312 32.480469 -46.773438 32.480469 -45.785156 C 32.480469 -44.863281 32.410156 -43.875 32.410156 -43.023438 L 32.410156 -42.671875 C 32.410156 -42.601562 32.480469 -42.527344 32.480469 -42.457031 C 32.480469 -42.316406 32.480469 -42.175781 32.480469 -42.035156 L 32.339844 -41.964844 C 32.339844 -41.113281 32.054688 -40.195312 31.277344 -39.839844 C 30.996094 -39.699219 30.710938 -39.769531 30.5 -39.699219 C 30.285156 -39.699219 30.074219 -39.628906 29.863281 -39.628906 C 27.953125 -39.414062 26.113281 -39.34375 24.273438 -39.0625 C 22.433594 -38.777344 20.664062 -38.425781 18.964844 -37.222656 C 17.265625 -36.089844 15.710938 -34.675781 14.578125 -32.976562 C 14.507812 -32.765625 14.292969 -32.621094 14.152344 -32.410156 L 13.65625 -31.488281 C 13.375 -30.925781 13.304688 -30.359375 13.089844 -29.792969 C 12.878906 -29.226562 12.878906 -28.660156 12.738281 -28.164062 C 12.597656 -27.667969 12.242188 -27.171875 12.171875 -26.679688 C 12.101562 -26.113281 12.101562 -25.617188 12.101562 -25.050781 C 12.101562 -24.058594 12.171875 -23.140625 12.3125 -22.148438 C 12.382812 -22.078125 12.597656 -22.078125 12.667969 -22.007812 C 12.738281 -21.511719 12.808594 -21.085938 12.949219 -20.664062 C 13.445312 -19.320312 13.800781 -17.972656 14.578125 -16.84375 C 15.285156 -15.710938 16.132812 -14.507812 17.195312 -13.585938 C 17.480469 -13.375 17.832031 -13.304688 18.042969 -13.160156 C 20.027344 -11.605469 22.363281 -10.683594 24.839844 -10.332031 C 25.191406 -10.261719 25.546875 -9.976562 25.898438 -9.976562 C 26.605469 -9.976562 27.738281 -10.121094 28.800781 -10.121094 C 30.144531 -10.121094 31.488281 -9.90625 31.984375 -8.988281 C 32.125 -8.84375 32.339844 -8.773438 32.339844 -8.5625 C 32.339844 -8.492188 32.410156 -8.421875 32.410156 -8.28125 C 32.410156 -8.136719 32.269531 -7.925781 32.269531 -7.785156 C 32.269531 -7.640625 32.410156 -7.570312 32.410156 -7.429688 C 32.410156 -7.429688 32.480469 -7.359375 32.480469 -7.289062 C 32.410156 -7.148438 32.339844 -7.003906 32.410156 -6.863281 C 32.410156 -6.792969 32.550781 -6.792969 32.550781 -6.722656 C 32.550781 -5.449219 32.410156 -4.175781 32.410156 -2.902344 C 32.410156 -2.832031 32.480469 -2.761719 32.480469 -2.761719 C 32.410156 -2.617188 32.339844 -2.476562 32.339844 -2.40625 C 32.410156 -2.335938 32.339844 -2.265625 32.269531 -2.195312 C 32.269531 -2.121094 32.480469 -1.980469 32.480469 -1.839844 C 32.480469 -1.484375 32.269531 -1.203125 32.125 -0.847656 C 31.703125 0.28125 30.285156 0.496094 29.011719 0.496094 C 28.304688 0.496094 27.597656 0.425781 27.03125 0.425781 C 26.890625 0.425781 26.820312 0.355469 26.679688 0.355469 L 26.605469 0.355469 C 26.535156 0.355469 26.464844 0.496094 26.394531 0.496094 C 24.839844 0.425781 23.351562 0.210938 21.867188 -0.0703125 C 20.449219 -0.425781 18.964844 -0.921875 17.621094 -1.484375 C 16.203125 -2.050781 14.859375 -2.6875 13.515625 -3.46875 L 13.515625 -3.609375 C 11.960938 -4.601562 10.542969 -5.730469 9.269531 -6.933594 C 7.996094 -8.207031 6.792969 -9.554688 5.800781 -11.109375 C 4.8125 -12.597656 4.105469 -14.222656 3.46875 -15.921875 C 3.324219 -16.203125 3.324219 -16.558594 3.183594 -16.84375 C 2.902344 -17.621094 2.476562 -18.398438 2.335938 -19.246094 C 2.195312 -19.8125 2.265625 -20.378906 2.195312 -21.015625 C 2.121094 -21.371094 1.910156 -21.722656 1.910156 -22.078125 C 1.839844 -22.21875 1.769531 -22.363281 1.769531 -22.503906 C 1.769531 -22.644531 1.910156 -22.855469 1.839844 -23.070312 C 1.769531 -24.910156 1.769531 -26.75 2.050781 -28.589844 C 2.121094 -28.941406 2.265625 -29.226562 2.335938 -29.507812 C 2.40625 -29.792969 2.335938 -30.074219 2.40625 -30.359375 C 2.476562 -30.640625 2.546875 -30.996094 2.617188 -31.277344 L 2.832031 -31.84375 C 2.972656 -32.269531 3.042969 -32.691406 3.183594 -33.117188 C 3.324219 -33.472656 3.324219 -33.894531 3.46875 -34.25 C 3.960938 -35.523438 4.742188 -36.65625 5.449219 -37.789062 C 6.085938 -38.921875 7.003906 -39.910156 7.855469 -40.972656 C 8.066406 -41.183594 7.996094 -41.609375 8.207031 -41.820312 C 8.351562 -41.964844 8.632812 -42.035156 8.773438 -42.175781 C 9.90625 -43.449219 11.25 -44.582031 12.667969 -45.570312 C 14.082031 -46.5625 15.710938 -47.410156 17.265625 -48.046875 C 18.894531 -48.757812 20.523438 -49.324219 22.21875 -49.675781 C 23.351562 -49.886719 24.414062 -49.886719 25.546875 -49.886719 Z M 28.234375 -49.886719 "/></g></g></g><g fill="rgb(0%, 7.058716%, 16.079712%)" fill-opacity="1"><g transform="translate(169.548402, 333.03914)"><g><path d="M 4.671875 -24.839844 C 4.671875 -26.75 4.742188 -28.660156 4.742188 -30.570312 C 4.742188 -32.550781 4.601562 -34.460938 4.601562 -36.371094 C 4.601562 -38.285156 4.671875 -40.195312 4.671875 -42.105469 C 4.671875 -44.015625 4.742188 -45.996094 4.742188 -47.90625 C 4.742188 -48.191406 4.742188 -48.472656 4.8125 -48.757812 C 4.953125 -49.039062 5.164062 -49.324219 5.449219 -49.464844 C 5.589844 -49.464844 5.800781 -49.464844 5.945312 -49.535156 C 6.226562 -49.535156 6.511719 -49.464844 6.792969 -49.464844 C 8.351562 -49.464844 9.90625 -49.535156 11.464844 -49.535156 C 11.746094 -49.535156 12.03125 -49.464844 12.3125 -49.394531 C 12.523438 -49.25 12.878906 -49.179688 12.949219 -48.96875 C 13.019531 -48.828125 12.949219 -48.6875 12.949219 -48.542969 C 13.019531 -48.332031 13.160156 -48.121094 13.160156 -47.835938 L 13.160156 -42.8125 C 13.160156 -41.113281 13.234375 -39.414062 13.234375 -37.71875 C 13.234375 -36.019531 13.160156 -34.320312 13.160156 -32.621094 L 13.160156 -27.527344 C 13.160156 -25.828125 13.089844 -24.128906 13.089844 -22.433594 C 13.089844 -20.804688 13.234375 -19.105469 13.234375 -17.40625 C 13.234375 -15.710938 13.089844 -14.011719 13.089844 -12.3125 L 13.089844 -11.675781 C 13.089844 -11.464844 13.160156 -11.25 13.160156 -11.039062 C 13.234375 -10.542969 13.304688 -10.046875 13.585938 -9.625 C 13.800781 -9.269531 14.011719 -8.917969 14.363281 -8.773438 C 14.789062 -8.632812 15.144531 -8.632812 15.566406 -8.632812 L 15.710938 -8.632812 C 15.78125 -8.632812 15.921875 -8.492188 16.0625 -8.5625 C 16.132812 -8.5625 16.203125 -8.703125 16.277344 -8.703125 C 16.417969 -8.703125 16.558594 -8.632812 16.699219 -8.632812 C 17.621094 -8.632812 18.609375 -8.492188 19.53125 -8.492188 C 19.882812 -8.492188 20.167969 -8.492188 20.449219 -8.351562 C 20.734375 -8.207031 21.015625 -8.136719 21.085938 -7.925781 C 21.230469 -7.714844 21.230469 -7.429688 21.230469 -7.21875 C 21.300781 -6.792969 21.160156 -6.441406 21.160156 -6.015625 L 21.160156 -1.910156 C 21.160156 -1.628906 21.230469 -1.273438 21.160156 -0.992188 C 21.015625 -0.496094 20.664062 -0.28125 20.167969 -0.140625 C 19.8125 -0.0703125 19.53125 -0.140625 19.246094 -0.140625 C 17.125 -0.140625 15.003906 -0.0703125 12.878906 -0.0703125 C 10.757812 -0.0703125 8.5625 0 6.441406 0 C 6.226562 0 5.945312 -0.0703125 5.660156 -0.140625 C 5.378906 -0.140625 5.164062 -0.355469 4.953125 -0.636719 C 4.8125 -0.707031 4.8125 -0.921875 4.8125 -1.0625 C 4.742188 -1.273438 4.601562 -1.558594 4.601562 -1.769531 C 4.601562 -3.679688 4.742188 -5.589844 4.742188 -7.5 C 4.742188 -9.480469 4.671875 -11.394531 4.671875 -13.304688 C 4.671875 -15.214844 4.742188 -17.125 4.742188 -19.035156 C 4.742188 -21.015625 4.671875 -22.925781 4.671875 -24.839844 Z M 4.671875 -24.839844 "/></g></g></g><g fill="rgb(0%, 7.058716%, 16.079712%)" fill-opacity="1"><g transform="translate(197.923796, 333.03914)"><g><path d="M 1.769531 -25.6875 C 1.769531 -26.183594 1.839844 -26.679688 1.980469 -27.171875 C 1.628906 -27.316406 2.476562 -30.429688 2.617188 -30.925781 C 3.113281 -33.1875 4.035156 -35.382812 5.09375 -37.363281 C 5.589844 -38.140625 6.085938 -38.992188 6.652344 -39.699219 C 7.855469 -41.324219 9.339844 -42.953125 10.898438 -44.226562 C 11.109375 -44.441406 11.320312 -44.582031 11.535156 -44.722656 C 11.605469 -44.792969 11.746094 -44.863281 11.816406 -45.007812 L 14.011719 -46.492188 C 14.152344 -46.5625 14.4375 -46.5625 14.578125 -46.703125 C 14.789062 -46.773438 15.003906 -46.917969 15.214844 -46.988281 C 15.285156 -47.058594 15.285156 -47.199219 15.355469 -47.199219 C 15.355469 -47.269531 15.425781 -47.199219 15.496094 -47.199219 C 15.640625 -47.339844 15.851562 -47.484375 16.0625 -47.554688 C 16.203125 -47.695312 16.417969 -47.695312 16.558594 -47.835938 C 16.699219 -47.835938 16.769531 -47.976562 16.84375 -47.976562 C 17.195312 -48.121094 17.550781 -48.191406 17.832031 -48.332031 C 18.117188 -48.402344 18.46875 -48.472656 18.753906 -48.613281 C 18.894531 -48.613281 18.964844 -48.828125 19.105469 -48.828125 C 19.175781 -48.898438 19.320312 -48.898438 19.460938 -48.898438 C 19.53125 -48.96875 19.671875 -48.898438 19.742188 -48.898438 C 19.882812 -48.96875 20.027344 -48.96875 20.167969 -49.039062 C 20.308594 -49.039062 20.449219 -49.179688 20.59375 -49.25 C 20.734375 -49.324219 20.875 -49.324219 21.015625 -49.324219 L 22.433594 -49.675781 C 22.714844 -49.675781 23.070312 -49.675781 23.421875 -49.746094 C 23.636719 -49.746094 23.847656 -49.886719 24.058594 -49.886719 C 24.414062 -49.960938 24.695312 -49.886719 25.050781 -49.960938 C 25.828125 -50.03125 26.605469 -49.816406 27.03125 -49.109375 C 27.171875 -48.898438 27.171875 -48.613281 27.242188 -48.402344 C 27.386719 -47.199219 27.457031 -45.996094 27.457031 -44.792969 C 27.457031 -44.085938 27.457031 -43.378906 27.386719 -42.742188 C 27.316406 -41.398438 27.03125 -40.125 25.476562 -39.910156 L 25.191406 -39.910156 C 25.050781 -39.839844 24.910156 -39.910156 24.765625 -39.910156 L 23.777344 -39.699219 C 19.671875 -38.777344 15.851562 -36.019531 13.800781 -32.339844 C 13.65625 -32.054688 13.65625 -31.773438 13.515625 -31.488281 L 13.234375 -30.996094 C 13.234375 -30.851562 13.375 -30.78125 13.375 -30.710938 C 13.375 -30.570312 13.304688 -30.429688 13.445312 -30.285156 C 13.515625 -30.144531 13.65625 -30.003906 13.800781 -29.933594 C 14.082031 -29.863281 14.292969 -29.933594 14.578125 -29.933594 C 14.859375 -29.933594 15.214844 -29.863281 15.496094 -29.863281 C 15.566406 -29.863281 15.566406 -29.863281 15.566406 -29.863281 L 15.78125 -29.863281 C 15.851562 -29.933594 15.921875 -29.792969 15.992188 -29.792969 C 17.335938 -29.792969 18.683594 -29.792969 20.027344 -29.863281 C 20.734375 -29.863281 21.371094 -29.863281 22.007812 -29.933594 C 22.574219 -29.933594 23.140625 -29.792969 23.707031 -29.792969 L 23.847656 -29.792969 C 24.34375 -29.792969 25.050781 -29.792969 25.476562 -29.648438 C 25.546875 -29.578125 25.546875 -29.578125 25.617188 -29.578125 C 26.042969 -29.296875 26.324219 -28.871094 26.394531 -28.375 C 26.464844 -28.09375 26.464844 -27.738281 26.464844 -27.457031 C 26.464844 -26.960938 26.464844 -26.394531 26.464844 -25.898438 L 26.464844 -23.28125 C 26.464844 -23.210938 26.394531 -23.140625 26.394531 -23.140625 C 26.394531 -23.070312 26.535156 -23 26.535156 -22.855469 C 26.535156 -22.078125 26.535156 -20.804688 25.828125 -20.238281 C 25.261719 -19.8125 24.695312 -19.742188 24.058594 -19.742188 C 23.636719 -19.742188 23.28125 -19.742188 22.855469 -19.8125 C 21.582031 -19.882812 20.167969 -19.742188 18.894531 -19.742188 C 17.480469 -19.742188 16.132812 -19.8125 14.789062 -19.8125 C 14.507812 -19.8125 14.152344 -19.8125 13.871094 -19.671875 C 13.65625 -19.601562 13.515625 -19.460938 13.445312 -19.320312 C 13.304688 -19.175781 13.234375 -19.035156 13.234375 -18.894531 C 13.234375 -18.753906 13.160156 -18.609375 13.234375 -18.46875 C 13.234375 -18.257812 13.375 -18.117188 13.515625 -17.902344 C 13.515625 -17.832031 13.515625 -17.761719 13.515625 -17.691406 L 14.011719 -16.84375 C 14.222656 -16.417969 14.648438 -16.0625 14.929688 -15.640625 C 15.425781 -14.929688 15.992188 -14.4375 16.628906 -13.800781 C 16.914062 -13.585938 17.054688 -13.234375 17.335938 -12.949219 C 18.042969 -12.382812 19.105469 -11.886719 19.957031 -11.394531 C 21.160156 -10.757812 22.503906 -10.191406 23.847656 -9.90625 C 23.988281 -9.835938 24.203125 -9.835938 24.414062 -9.835938 C 24.695312 -9.765625 24.980469 -9.765625 25.191406 -9.695312 C 25.546875 -9.625 25.828125 -9.554688 26.183594 -9.410156 C 26.394531 -9.339844 26.535156 -9.199219 26.75 -8.988281 C 26.890625 -8.84375 27.03125 -8.773438 27.101562 -8.632812 C 27.316406 -8.28125 27.316406 -8.066406 27.316406 -7.855469 C 27.316406 -7.714844 27.316406 -7.570312 27.316406 -7.429688 L 27.316406 -7.148438 C 27.386719 -6.582031 27.386719 -6.015625 27.386719 -5.449219 C 27.386719 -4.8125 27.386719 -4.246094 27.316406 -3.609375 C 27.316406 -3.042969 27.316406 -2.476562 27.242188 -1.910156 C 27.242188 -1.484375 27.316406 -0.847656 27.171875 -0.496094 C 27.171875 -0.355469 27.03125 -0.210938 26.960938 -0.0703125 L 26.75 0.0703125 C 26.679688 0.140625 26.464844 0.210938 26.394531 0.210938 C 25.96875 0.425781 25.617188 0.496094 25.261719 0.496094 C 24.980469 0.496094 24.695312 0.496094 24.484375 0.355469 C 24.203125 0.28125 23.917969 0.355469 23.636719 0.355469 C 23.210938 0.28125 22.785156 0.210938 22.433594 0.0703125 C 22.363281 0.0703125 22.21875 0.140625 22.148438 0.0703125 C 21.867188 0.0703125 21.652344 -0.140625 21.371094 -0.210938 C 21.230469 -0.28125 21.015625 -0.140625 20.804688 -0.210938 C 20.449219 -0.28125 20.027344 -0.425781 19.671875 -0.566406 C 18.964844 -0.847656 18.257812 -1.203125 17.550781 -1.414062 C 16.914062 -1.628906 16.277344 -1.769531 15.710938 -2.050781 C 15.566406 -2.121094 15.425781 -2.265625 15.566406 -2.40625 C 15.144531 -2.050781 13.019531 -3.820312 12.738281 -4.035156 C 12.453125 -4.175781 12.171875 -4.246094 11.886719 -4.457031 C 11.675781 -4.671875 11.394531 -4.882812 11.109375 -5.09375 C 10.542969 -5.519531 10.046875 -6.15625 9.480469 -6.652344 C 8.492188 -7.5 7.5 -8.703125 6.652344 -9.765625 L 6.085938 -10.542969 C 5.800781 -10.96875 5.660156 -11.464844 5.378906 -11.960938 C 5.238281 -12.171875 5.09375 -12.3125 4.953125 -12.523438 L 4.882812 -12.808594 C 4.457031 -13.515625 3.960938 -14.292969 3.679688 -15.003906 C 3.398438 -15.921875 2.972656 -16.769531 2.761719 -17.621094 L 2.546875 -18.328125 C 2.476562 -18.539062 2.546875 -18.753906 2.476562 -18.964844 C 2.40625 -19.246094 2.40625 -19.460938 2.40625 -19.742188 C 2.335938 -20.027344 2.121094 -20.238281 2.050781 -20.523438 C 1.980469 -20.945312 1.980469 -21.371094 1.910156 -21.796875 C 1.839844 -22.363281 1.839844 -22.855469 1.839844 -23.421875 C 1.769531 -24.128906 1.769531 -24.910156 1.769531 -25.6875 Z M 1.769531 -25.6875 "/></g></g></g><g fill="rgb(0%, 7.058716%, 16.079712%)" fill-opacity="1"><g transform="translate(232.526104, 333.03914)"><g><path d="M 21.230469 -20.097656 C 21.230469 -14.292969 21.160156 -8.421875 21.085938 -2.546875 C 21.085938 -1.839844 21.085938 -1.0625 20.523438 -0.566406 C 20.097656 -0.140625 19.460938 -0.0703125 18.894531 -0.0703125 C 17.125 0 15.425781 0 13.726562 -0.140625 C 13.089844 -0.140625 12.382812 -0.210938 11.816406 -0.566406 C 11.179688 -0.992188 11.179688 -1.628906 11.25 -2.335938 C 11.320312 -3.183594 11.25 -4.105469 11.25 -4.953125 L 11.25 -10.828125 C 11.25 -14.789062 11.25 -18.683594 11.25 -22.644531 L 11.25 -37.433594 C 11.25 -38 11.179688 -38.636719 10.828125 -39.0625 C 10.402344 -39.414062 9.765625 -39.484375 9.199219 -39.414062 L 6.722656 -39.414062 C 5.730469 -39.414062 4.601562 -39.484375 3.960938 -40.265625 C 3.539062 -40.832031 3.539062 -41.609375 3.539062 -42.316406 C 3.539062 -43.660156 3.539062 -45.078125 3.609375 -46.421875 C 3.609375 -47.410156 3.679688 -48.542969 4.527344 -49.039062 C 4.953125 -49.324219 5.519531 -49.394531 6.085938 -49.394531 C 12.949219 -49.605469 19.8125 -49.605469 26.679688 -49.324219 C 27.171875 -49.324219 27.738281 -49.324219 28.164062 -48.96875 C 28.589844 -48.542969 28.660156 -47.976562 28.730469 -47.410156 C 28.941406 -45.359375 28.941406 -43.308594 28.800781 -41.253906 C 28.730469 -40.761719 28.730469 -40.335938 28.375 -39.980469 C 28.023438 -39.628906 27.527344 -39.558594 27.03125 -39.484375 C 25.828125 -39.414062 24.625 -39.414062 23.492188 -39.484375 C 23 -39.484375 22.574219 -39.484375 22.148438 -39.34375 C 21.230469 -38.921875 21.160156 -37.71875 21.160156 -36.726562 C 21.160156 -31.207031 21.230469 -25.6875 21.230469 -20.097656 Z M 21.230469 -20.097656 "/></g></g></g><g fill="rgb(0%, 7.058716%, 16.079712%)" fill-opacity="1"><g transform="translate(268.543629, 333.03914)"><g><path d="M 27.171875 0.496094 C 27.171875 0.496094 27.101562 0.425781 27.03125 0.425781 C 26.605469 0.425781 26.183594 0.566406 25.757812 0.566406 C 25.402344 0.566406 25.050781 0.496094 24.695312 0.425781 C 24.414062 0.425781 24.128906 0.28125 23.847656 0.28125 C 23.492188 0.210938 23.210938 0.140625 22.855469 0.0703125 L 21.300781 -0.140625 C 20.804688 -0.28125 20.238281 -0.425781 19.742188 -0.636719 C 19.460938 -0.707031 19.175781 -0.847656 18.894531 -0.921875 C 18.328125 -1.132812 17.761719 -1.34375 17.195312 -1.628906 C 16.769531 -1.769531 16.277344 -1.980469 15.851562 -2.265625 C 15.144531 -2.617188 14.4375 -3.042969 13.726562 -3.46875 C 13.089844 -3.890625 12.382812 -4.316406 11.746094 -4.8125 L 10.683594 -5.589844 C 10.472656 -5.730469 10.261719 -5.945312 10.046875 -6.15625 C 9.835938 -6.367188 9.695312 -6.582031 9.480469 -6.722656 C 9.410156 -6.792969 9.339844 -6.722656 9.269531 -6.792969 C 9.199219 -6.792969 9.339844 -6.933594 9.269531 -7.003906 C 9.199219 -7.078125 8.988281 -7.078125 8.84375 -7.21875 C 8.632812 -7.5 8.492188 -7.785156 8.207031 -8.066406 C 7.996094 -8.351562 7.640625 -8.492188 7.429688 -8.773438 L 6.652344 -9.835938 C 6.367188 -10.191406 6.085938 -10.542969 5.875 -10.898438 L 5.09375 -12.3125 C 4.671875 -12.949219 4.457031 -13.585938 4.105469 -14.292969 C 3.960938 -14.578125 3.890625 -14.929688 3.75 -15.285156 L 3.113281 -16.84375 C 2.832031 -17.621094 2.617188 -18.328125 2.40625 -19.105469 C 2.335938 -19.460938 2.335938 -19.882812 2.265625 -20.308594 C 2.195312 -20.523438 2.050781 -20.804688 2.050781 -21.085938 C 1.980469 -21.230469 2.121094 -21.441406 2.050781 -21.582031 C 2.050781 -21.722656 1.980469 -21.867188 1.980469 -22.007812 L 1.769531 -22.855469 C 1.769531 -23.140625 1.839844 -23.351562 1.769531 -23.5625 C 1.769531 -23.777344 1.910156 -23.988281 1.910156 -24.128906 C 1.910156 -24.203125 1.839844 -24.34375 1.839844 -24.414062 L 1.839844 -24.554688 C 1.839844 -24.765625 1.769531 -24.980469 1.769531 -25.191406 L 1.769531 -25.332031 C 1.769531 -25.476562 1.769531 -25.617188 1.769531 -25.757812 L 1.769531 -26.679688 C 1.769531 -27.101562 1.980469 -27.457031 1.980469 -27.882812 C 2.050781 -28.234375 1.980469 -28.660156 2.050781 -29.011719 C 2.050781 -29.226562 2.195312 -29.367188 2.195312 -29.578125 C 2.265625 -29.792969 2.265625 -30.074219 2.335938 -30.359375 C 2.40625 -30.78125 2.6875 -31.136719 2.761719 -31.5625 C 2.902344 -31.984375 2.902344 -32.480469 3.042969 -32.976562 C 3.183594 -33.402344 3.539062 -33.824219 3.679688 -34.25 C 3.890625 -34.746094 3.960938 -35.242188 4.175781 -35.664062 C 4.316406 -36.019531 4.601562 -36.300781 4.8125 -36.65625 C 5.164062 -37.292969 5.378906 -38 5.800781 -38.636719 C 6.15625 -39.203125 6.511719 -39.769531 6.933594 -40.335938 C 7.21875 -40.6875 7.640625 -40.902344 7.925781 -41.253906 C 8.136719 -41.46875 8.28125 -41.75 8.492188 -41.964844 C 8.492188 -42.035156 8.421875 -42.105469 8.421875 -42.105469 C 8.773438 -42.457031 9.128906 -42.8125 9.554688 -43.09375 C 9.835938 -43.378906 10.121094 -43.730469 10.472656 -44.015625 C 10.613281 -44.15625 10.757812 -44.367188 10.96875 -44.511719 L 11.535156 -44.722656 C 11.886719 -45.007812 12.242188 -45.289062 12.667969 -45.570312 C 13.089844 -45.925781 13.585938 -46.351562 14.082031 -46.632812 L 15.566406 -47.484375 C 16.132812 -47.765625 16.769531 -47.976562 17.40625 -48.191406 C 17.691406 -48.332031 17.972656 -48.613281 18.257812 -48.6875 C 18.609375 -48.828125 18.964844 -48.898438 19.320312 -49.039062 C 20.308594 -49.324219 21.300781 -49.535156 22.289062 -49.675781 C 22.503906 -49.746094 22.785156 -49.886719 23.070312 -49.886719 C 23.351562 -49.960938 23.636719 -50.101562 23.988281 -50.101562 C 24.203125 -50.171875 24.484375 -50.101562 24.695312 -50.101562 C 24.839844 -50.171875 25.050781 -50.101562 25.261719 -50.171875 L 26.113281 -50.171875 C 26.183594 -50.171875 26.253906 -50.3125 26.324219 -50.3125 C 26.605469 -50.3125 26.890625 -50.3125 27.171875 -50.3125 L 27.316406 -50.3125 C 27.527344 -50.3125 27.808594 -50.382812 28.023438 -50.3125 C 28.375 -50.3125 28.730469 -50.242188 29.085938 -50.242188 L 29.578125 -50.242188 C 29.792969 -50.171875 30.074219 -50.242188 30.359375 -50.171875 C 30.640625 -50.171875 30.925781 -49.960938 31.207031 -49.960938 C 31.773438 -49.816406 32.269531 -49.816406 32.835938 -49.675781 C 33.046875 -49.605469 33.328125 -49.605469 33.613281 -49.535156 C 34.320312 -49.394531 35.027344 -49.179688 35.664062 -48.898438 C 36.019531 -48.757812 36.300781 -48.613281 36.585938 -48.542969 L 37.71875 -48.121094 C 38.140625 -47.90625 38.566406 -47.554688 38.992188 -47.339844 C 39.484375 -47.058594 40.050781 -46.847656 40.546875 -46.492188 C 40.832031 -46.28125 41.253906 -46.136719 41.609375 -45.925781 C 41.964844 -45.644531 42.386719 -45.289062 42.742188 -44.933594 L 43.519531 -44.296875 C 43.730469 -44.085938 43.945312 -43.875 44.15625 -43.730469 C 44.441406 -43.449219 44.652344 -43.238281 44.933594 -43.023438 L 45.429688 -42.601562 C 45.570312 -42.527344 45.570312 -42.316406 45.714844 -42.175781 C 45.855469 -42.035156 46.136719 -41.890625 46.351562 -41.679688 C 46.492188 -41.539062 46.632812 -41.324219 46.773438 -41.113281 C 46.917969 -40.902344 46.988281 -40.617188 47.199219 -40.40625 L 47.835938 -39.558594 C 48.121094 -39.203125 48.402344 -38.921875 48.613281 -38.496094 L 49.25 -37.644531 C 49.394531 -37.363281 49.605469 -37.007812 49.746094 -36.65625 C 49.960938 -36.300781 50.171875 -35.949219 50.3125 -35.59375 C 50.527344 -35.242188 50.667969 -34.816406 50.808594 -34.390625 C 51.019531 -33.894531 51.164062 -33.328125 51.375 -32.835938 C 51.515625 -32.269531 51.726562 -31.773438 51.871094 -31.277344 C 52.011719 -30.78125 52.011719 -30.285156 52.152344 -29.792969 C 52.222656 -29.4375 52.222656 -29.085938 52.292969 -28.730469 C 52.292969 -28.445312 52.367188 -28.09375 52.367188 -27.738281 C 52.4375 -27.597656 52.507812 -27.457031 52.507812 -27.316406 C 52.507812 -27.101562 52.578125 -26.820312 52.578125 -26.605469 L 52.578125 -26.535156 C 52.578125 -26.253906 52.648438 -25.898438 52.648438 -25.546875 C 52.71875 -25.332031 52.507812 -25.121094 52.507812 -24.839844 C 52.507812 -24.554688 52.648438 -24.273438 52.648438 -23.917969 C 52.648438 -23.636719 52.648438 -23.28125 52.578125 -23 C 52.578125 -22.785156 52.507812 -22.644531 52.4375 -22.433594 L 52.4375 -21.9375 C 52.4375 -21.722656 52.367188 -21.511719 52.292969 -21.300781 L 52.292969 -20.523438 C 52.222656 -20.238281 52.082031 -19.957031 52.011719 -19.601562 C 51.871094 -19.035156 51.800781 -18.46875 51.65625 -17.972656 C 51.515625 -17.480469 51.304688 -17.054688 51.164062 -16.558594 C 51.089844 -16.277344 51.019531 -16.0625 50.949219 -15.78125 L 50.527344 -14.859375 C 50.242188 -14.292969 50.03125 -13.65625 49.675781 -13.019531 C 49.394531 -12.597656 49.109375 -12.171875 48.828125 -11.675781 C 48.542969 -11.25 48.332031 -10.757812 48.046875 -10.332031 C 47.765625 -9.976562 47.484375 -9.765625 47.269531 -9.410156 C 47.058594 -9.128906 46.917969 -8.773438 46.703125 -8.492188 C 46.492188 -8.28125 46.351562 -8.066406 46.207031 -7.855469 C 46.066406 -7.714844 45.855469 -7.640625 45.714844 -7.5 C 45.359375 -7.148438 45.078125 -6.722656 44.722656 -6.441406 C 44.582031 -6.226562 44.296875 -6.15625 44.085938 -6.015625 C 43.945312 -5.875 43.875 -5.660156 43.804688 -5.589844 C 43.589844 -5.449219 43.378906 -5.308594 43.167969 -5.164062 L 42.105469 -4.316406 C 41.609375 -3.960938 41.113281 -3.679688 40.617188 -3.398438 C 40.265625 -3.183594 39.980469 -2.902344 39.628906 -2.6875 C 39.484375 -2.617188 39.34375 -2.617188 39.203125 -2.617188 C 38.921875 -2.40625 38.777344 -2.121094 38.496094 -1.980469 C 38.140625 -1.839844 37.71875 -1.699219 37.363281 -1.484375 C 37.082031 -1.414062 36.726562 -1.414062 36.445312 -1.273438 C 35.664062 -0.992188 34.886719 -0.707031 34.039062 -0.496094 C 33.402344 -0.28125 32.691406 -0.0703125 32.054688 0.0703125 C 31.5625 0.140625 31.066406 0.140625 30.640625 0.210938 L 29.578125 0.425781 C 29.367188 0.425781 29.15625 0.566406 28.941406 0.566406 C 28.730469 0.636719 28.445312 0.566406 28.234375 0.566406 C 27.882812 0.636719 27.527344 0.496094 27.171875 0.496094 Z M 28.09375 -9.269531 C 29.933594 -9.339844 31.84375 -9.695312 33.683594 -10.542969 C 35.3125 -11.320312 36.796875 -12.597656 38.285156 -14.011719 C 39.699219 -15.496094 40.832031 -17.125 41.539062 -18.894531 C 42.316406 -20.664062 42.742188 -22.574219 42.8125 -24.695312 C 42.882812 -25.898438 42.742188 -27.171875 42.527344 -28.375 C 42.246094 -29.4375 41.820312 -30.5 41.324219 -31.488281 C 40.617188 -32.976562 39.699219 -34.320312 38.636719 -35.453125 C 38.070312 -36.089844 37.503906 -36.726562 36.867188 -37.222656 C 35.878906 -38 34.746094 -38.636719 33.613281 -39.132812 C 32.550781 -39.628906 31.488281 -39.980469 30.359375 -40.195312 C 29.296875 -40.40625 28.304688 -40.546875 27.242188 -40.546875 C 25.757812 -40.546875 24.273438 -40.335938 22.785156 -39.910156 C 21.582031 -39.484375 20.449219 -38.921875 19.320312 -38.285156 C 18.1875 -37.574219 17.195312 -36.867188 16.277344 -35.949219 C 15.214844 -34.886719 14.222656 -33.683594 13.515625 -32.339844 C 12.949219 -31.277344 12.597656 -30.144531 12.3125 -28.941406 C 11.960938 -27.597656 11.535156 -26.253906 11.535156 -24.910156 C 11.535156 -23.492188 11.886719 -22.148438 12.242188 -20.875 C 12.597656 -19.53125 13.019531 -18.257812 13.726562 -17.054688 C 14.4375 -15.78125 15.425781 -14.71875 16.417969 -13.726562 C 17.40625 -12.808594 18.539062 -11.960938 19.8125 -11.25 C 21.085938 -10.542969 22.363281 -10.121094 23.847656 -9.765625 C 25.121094 -9.554688 26.464844 -9.269531 28.09375 -9.269531 Z M 28.09375 -9.269531 "/></g></g></g><g fill="rgb(0%, 7.058716%, 16.079712%)" fill-opacity="1"><g transform="translate(326.56764, 333.03914)"><g><path d="M 32.835938 -24.765625 C 32.835938 -23.210938 32.835938 -21.582031 32.835938 -20.027344 L 32.835938 -15.285156 C 32.835938 -13.726562 32.90625 -12.101562 32.90625 -10.542969 L 32.90625 -5.800781 C 32.90625 -4.175781 32.976562 -2.617188 32.976562 -1.0625 C 32.976562 -0.847656 32.835938 -0.707031 32.835938 -0.566406 C 32.835938 -0.355469 32.621094 -0.140625 32.410156 -0.140625 C 32.269531 -0.140625 32.125 -0.0703125 31.984375 -0.140625 L 31.773438 0 C 30.074219 0 28.375 -0.140625 26.605469 -0.140625 C 26.394531 -0.140625 26.183594 -0.140625 26.042969 -0.0703125 L 25.617188 -0.0703125 C 24.625 -0.0703125 25.6875 0.0703125 23.5625 -0.140625 C 23.28125 -0.140625 23 -0.140625 22.785156 -0.210938 C 22.363281 -0.210938 22.007812 -0.210938 21.582031 -0.28125 C 21.371094 -0.28125 21.085938 -0.425781 20.875 -0.496094 C 20.59375 -0.566406 20.308594 -0.566406 20.027344 -0.636719 L 19.105469 -0.847656 C 18.683594 -0.921875 18.328125 -1.0625 17.902344 -1.203125 C 17.550781 -1.34375 17.195312 -1.414062 16.914062 -1.558594 C 16.628906 -1.628906 16.417969 -1.839844 16.203125 -1.910156 C 15.78125 -2.121094 15.355469 -2.195312 14.929688 -2.40625 C 14.363281 -2.6875 13.800781 -3.042969 13.234375 -3.398438 C 12.808594 -3.679688 12.382812 -3.960938 11.960938 -4.316406 C 11.605469 -4.527344 11.320312 -4.882812 11.039062 -5.09375 C 10.757812 -5.378906 10.402344 -5.519531 10.121094 -5.800781 C 10.046875 -5.875 10.046875 -6.015625 9.976562 -6.015625 L 9.765625 -6.226562 C 9.625 -6.367188 9.339844 -6.511719 9.199219 -6.722656 C 8.988281 -6.933594 8.773438 -7.078125 8.632812 -7.359375 C 8.351562 -7.640625 8.136719 -8.066406 7.925781 -8.421875 C 7.714844 -8.773438 7.359375 -8.988281 7.148438 -9.410156 C 7.078125 -9.554688 6.863281 -9.695312 6.792969 -9.90625 C 6.582031 -10.261719 6.511719 -10.613281 6.367188 -10.96875 C 6.226562 -11.179688 5.945312 -11.394531 5.875 -11.605469 C 5.730469 -11.886719 5.660156 -12.242188 5.589844 -12.597656 C 5.378906 -12.949219 5.238281 -13.375 5.09375 -13.726562 C 4.8125 -14.507812 4.527344 -15.214844 4.316406 -15.992188 C 4.246094 -16.417969 4.175781 -16.914062 4.105469 -17.40625 L 3.890625 -18.398438 C 3.609375 -20.734375 3.609375 -23.070312 3.609375 -25.476562 C 3.609375 -26.960938 3.609375 -28.519531 3.609375 -30.074219 L 3.609375 -34.675781 C 3.609375 -36.230469 3.679688 -37.789062 3.679688 -39.34375 C 3.679688 -40.902344 3.539062 -42.386719 3.539062 -43.945312 C 3.539062 -45.5 3.609375 -47.058594 3.609375 -48.613281 C 3.609375 -48.757812 3.679688 -48.898438 3.75 -49.039062 C 3.820312 -49.324219 3.890625 -49.464844 4.175781 -49.464844 C 4.246094 -49.464844 4.246094 -49.394531 4.316406 -49.394531 C 5.589844 -49.394531 6.863281 -49.464844 8.136719 -49.464844 C 9.480469 -49.464844 10.757812 -49.535156 12.03125 -49.535156 C 12.101562 -49.535156 12.242188 -49.324219 12.3125 -49.324219 C 12.523438 -49.25 12.523438 -49.25 12.597656 -49.039062 L 12.597656 -48.613281 C 12.597656 -46.917969 12.738281 -45.148438 12.738281 -43.378906 C 12.738281 -41.679688 12.667969 -39.910156 12.667969 -38.140625 C 12.667969 -36.445312 12.808594 -34.675781 12.808594 -32.90625 C 12.808594 -31.207031 12.738281 -29.4375 12.738281 -27.667969 L 12.738281 -22.433594 C 12.738281 -21.511719 12.808594 -20.664062 12.949219 -19.742188 C 13.019531 -19.246094 12.949219 -18.753906 13.089844 -18.257812 C 13.160156 -17.761719 13.304688 -17.195312 13.515625 -16.699219 C 13.585938 -16.347656 13.871094 -16.132812 14.082031 -15.78125 C 14.152344 -15.496094 14.363281 -15.214844 14.507812 -14.929688 C 14.648438 -14.648438 14.789062 -14.363281 15.003906 -14.082031 C 15.144531 -13.871094 15.285156 -13.585938 15.425781 -13.375 L 15.78125 -13.019531 C 15.851562 -12.949219 15.992188 -12.878906 15.992188 -12.808594 C 16.0625 -12.808594 15.992188 -12.738281 15.992188 -12.667969 C 16.132812 -12.597656 16.277344 -12.523438 16.347656 -12.453125 L 16.769531 -12.03125 C 17.125 -11.746094 17.40625 -11.394531 17.832031 -11.109375 C 18.328125 -10.828125 18.894531 -10.613281 19.390625 -10.332031 C 19.8125 -10.191406 20.308594 -10.121094 20.734375 -9.976562 C 21.015625 -9.835938 21.230469 -9.625 21.511719 -9.554688 C 21.796875 -9.480469 22.148438 -9.480469 22.433594 -9.480469 C 22.574219 -9.410156 22.785156 -9.410156 23 -9.410156 C 23.210938 -9.410156 23.351562 -9.410156 23.492188 -9.480469 C 23.636719 -9.554688 23.636719 -9.695312 23.636719 -9.765625 C 23.707031 -9.835938 23.777344 -9.90625 23.777344 -9.976562 C 23.847656 -10.121094 23.777344 -10.261719 23.777344 -10.332031 L 23.777344 -10.402344 C 23.707031 -10.542969 23.777344 -10.757812 23.777344 -10.898438 C 23.777344 -12.738281 23.917969 -14.507812 23.917969 -16.277344 C 23.917969 -18.117188 23.707031 -19.882812 23.707031 -21.652344 C 23.707031 -23.492188 23.847656 -25.261719 23.847656 -27.03125 C 23.847656 -28.871094 23.707031 -30.640625 23.707031 -32.410156 C 23.707031 -34.25 23.847656 -36.019531 23.847656 -37.789062 C 23.847656 -39.628906 23.917969 -41.398438 23.917969 -43.167969 C 23.917969 -45.007812 23.777344 -46.773438 23.777344 -48.542969 L 23.777344 -49.109375 C 23.847656 -49.324219 24.058594 -49.464844 24.34375 -49.464844 L 24.484375 -49.464844 C 24.910156 -49.464844 31.207031 -49.535156 32.269531 -49.535156 L 32.621094 -49.535156 C 32.691406 -49.464844 32.765625 -49.25 32.765625 -49.109375 C 32.835938 -49.039062 32.765625 -48.898438 32.835938 -48.757812 C 32.835938 -48.6875 32.90625 -48.613281 32.90625 -48.542969 C 32.90625 -46.917969 32.976562 -45.359375 32.976562 -43.804688 C 32.976562 -42.175781 32.90625 -40.617188 32.90625 -38.992188 L 32.90625 -34.25 C 32.90625 -32.691406 32.976562 -31.136719 32.976562 -29.507812 C 32.976562 -27.953125 32.835938 -26.394531 32.835938 -24.765625 Z M 32.835938 -24.765625 "/></g></g></g><g clip-path="url(#id1)"><path fill="rgb(0%, 7.058716%, 16.079712%)" d="M 290.179688 65.902344 C 280.863281 51.933594 268.433594 41.613281 252.902344 34.9375 C 241.871094 30.589844 234.105469 33.695312 229.601562 44.25 C 224.941406 54.957031 228.046875 62.566406 238.921875 67.066406 C 247.925781 71.105469 255.230469 77.15625 260.820312 85.226562 C 266.097656 93.140625 268.742188 102.144531 268.742188 112.234375 L 268.742188 244.714844 C 268.742188 256.359375 274.640625 262.175781 286.449219 262.175781 C 298.410156 262.175781 304.390625 256.355469 304.390625 244.714844 L 304.390625 112.238281 C 304.394531 95.472656 299.65625 80.03125 290.179688 65.902344 Z M 290.179688 65.902344 " fill-opacity="1" fill-rule="nonzero"/></g><g clip-path="url(#id2)"><path fill="rgb(0%, 7.058716%, 16.079712%)" d="M 153.882812 28.1875 C 130.738281 28.1875 110.855469 36.414062 94.234375 52.867188 C 77.925781 69.476562 69.773438 89.269531 69.773438 112.238281 L 69.773438 244.71875 C 69.773438 256.363281 75.671875 262.179688 87.480469 262.179688 C 99.285156 262.179688 105.1875 256.359375 105.1875 244.71875 L 105.1875 112.238281 C 105.1875 98.582031 109.921875 87.015625 119.398438 77.546875 C 128.867188 68.082031 140.367188 63.347656 153.878906 63.347656 C 167.238281 63.347656 178.652344 68.082031 188.128906 77.546875 C 197.601562 87.015625 202.339844 98.582031 202.339844 112.238281 C 202.339844 112.859375 202.417969 113.328125 202.574219 113.636719 L 202.574219 178.363281 C 202.574219 190.007812 208.402344 195.824219 220.046875 195.824219 C 231.851562 195.824219 237.757812 190 237.757812 178.363281 L 237.757812 113.632812 C 237.757812 113.480469 237.789062 113.285156 237.875 113.050781 C 237.953125 112.816406 237.992188 112.546875 237.992188 112.234375 C 237.992188 89.414062 229.757812 69.628906 213.292969 52.863281 C 196.519531 36.414062 176.714844 28.1875 153.882812 28.1875 Z M 153.882812 28.1875 " fill-opacity="1" fill-rule="nonzero"/></g></svg>