<?xml version="1.0" standalone="no"?>
<!DOCTYPE svg PUBLIC "-//W3C//DTD SVG 20010904//EN"
 "http://www.w3.org/TR/2001/REC-SVG-20010904/DTD/svg10.dtd">
<svg version="1.0" xmlns="http://www.w3.org/2000/svg"
 width="1200.000000pt" height="1200.000000pt" viewBox="0 0 1200.000000 1200.000000"
 preserveAspectRatio="xMidYMid meet">
<metadata>
Created by potrace 1.14, written by Peter Selinger 2001-2017
</metadata>
<g transform="translate(0.000000,1200.000000) scale(0.100000,-0.100000)"
fill="#000000" stroke="none">
<path d="M7424 9688 c-4 -13 -20 -52 -36 -88 -17 -36 -38 -83 -48 -105 -10
-22 -33 -74 -52 -115 -20 -41 -39 -86 -43 -100 -4 -14 -11 -29 -15 -35 -4 -5
-31 -64 -59 -130 -94 -216 -99 -227 -149 -335 -16 -36 -44 -99 -62 -140 -17
-41 -42 -97 -55 -125 -13 -27 -58 -129 -100 -225 -43 -96 -87 -197 -100 -225
-12 -27 -64 -144 -115 -260 -50 -115 -103 -235 -117 -265 -14 -30 -32 -71 -40
-90 -8 -19 -19 -43 -24 -53 -5 -10 -7 -23 -3 -30 4 -7 3 -9 -1 -4 -5 4 -22
-23 -38 -60 -32 -76 -49 -113 -101 -226 -20 -44 -36 -81 -36 -84 0 -6 -44
-103 -61 -136 -5 -10 -7 -23 -3 -30 4 -7 3 -9 -1 -4 -5 4 -37 -59 -73 -140
-35 -82 -75 -172 -89 -202 -14 -30 -34 -74 -45 -100 l-19 -46 -38 85 c-21 47
-47 105 -58 130 -11 25 -36 81 -56 125 -19 44 -46 105 -60 135 -13 30 -39 88
-57 129 -17 40 -47 106 -66 147 -19 41 -34 76 -34 79 0 2 -13 32 -29 67 -45
97 -78 172 -77 178 0 3 -7 19 -16 35 -10 17 -33 66 -51 110 -19 44 -49 110
-66 147 -17 36 -31 69 -31 72 0 3 -15 38 -34 78 -69 149 -86 187 -86 192 0 3
-17 42 -39 88 -21 46 -60 133 -86 193 -26 61 -50 112 -54 115 -3 3 -7 12 -9
20 -1 8 -7 24 -12 35 -41 91 -71 160 -95 215 -15 36 -34 75 -41 87 -8 12 -14
27 -14 32 0 5 -17 47 -38 93 -21 45 -44 98 -51 115 -8 18 -18 30 -24 26 -6 -3
-7 -1 -3 6 4 6 -19 71 -52 144 -33 72 -79 176 -102 230 -24 53 -46 97 -49 97
-3 0 -21 -35 -40 -78 -19 -42 -50 -111 -69 -152 -19 -41 -35 -79 -36 -85 -1
-5 -7 -19 -13 -30 -6 -11 -63 -139 -128 -285 -64 -146 -125 -283 -135 -305
-10 -22 -44 -98 -75 -170 -32 -71 -65 -148 -75 -170 -10 -23 -20 -47 -22 -55
-2 -8 -9 -21 -15 -28 -7 -7 -13 -21 -13 -31 0 -9 -4 -21 -9 -27 -5 -5 -25 -47
-46 -94 -20 -47 -47 -107 -60 -135 -12 -27 -73 -165 -135 -305 -62 -140 -123
-277 -135 -305 -13 -27 -58 -129 -100 -225 -42 -96 -85 -193 -95 -215 -11 -22
-20 -47 -22 -55 -2 -8 -6 -17 -9 -20 -4 -3 -28 -54 -54 -115 -26 -60 -52 -116
-57 -122 -6 -7 -8 -13 -5 -13 4 0 -4 -21 -17 -47 -13 -27 -49 -106 -81 -178
-31 -71 -63 -146 -72 -165 -41 -88 -106 -238 -117 -266 -6 -18 -18 -39 -25
-48 -7 -9 -11 -16 -8 -16 3 0 -9 -33 -27 -72 -19 -40 -50 -108 -70 -151 -20
-43 -36 -80 -36 -82 0 -3 -15 -38 -34 -79 -19 -41 -49 -107 -66 -147 -18 -41
-42 -96 -55 -124 -12 -27 -35 -79 -50 -115 -15 -36 -41 -92 -56 -125 -27 -58
-119 -266 -119 -270 0 -1 100 -2 222 -2 151 0 225 4 230 11 6 8 8 8 8 0 0 -15
1212 -15 1222 0 5 8 8 7 8 -1 0 -15 80 -15 80 1 0 8 2 8 8 0 10 -15 584 -15
594 0 6 8 8 8 8 0 0 -7 72 -11 235 -11 l236 0 25 56 c14 31 32 70 41 88 8 17
12 37 8 44 -5 7 -4 10 2 6 6 -4 18 13 28 36 10 23 36 79 57 125 21 46 38 85
38 88 0 3 7 21 17 42 9 20 17 39 18 42 1 3 18 41 39 85 21 44 39 85 40 90 1 6
12 33 25 60 49 109 60 131 74 165 9 19 34 75 56 123 23 49 41 91 41 93 0 3 18
43 40 90 22 47 40 88 40 90 0 3 14 35 31 72 16 37 34 76 39 87 8 20 59 133 85
189 7 15 15 24 18 20 2 -5 48 -106 100 -224 52 -118 107 -242 122 -275 14 -33
32 -73 40 -90 32 -74 88 -200 120 -270 26 -59 57 -128 76 -172 7 -17 17 -29
23 -26 5 3 6 1 2 -5 -6 -11 13 -60 88 -224 40 -89 71 -160 85 -195 8 -18 18
-30 24 -26 6 3 7 1 3 -5 -6 -10 8 -48 57 -153 l12 -26 1042 0 c686 0 1040 4
1036 10 -4 6 -1 7 8 1 21 -14 450 -14 442 0 -5 8 -3 8 8 0 9 -8 88 -11 237
-11 183 0 222 3 222 14 0 8 -5 11 -12 7 -7 -4 -8 -3 -4 4 4 6 -4 35 -17 64
-14 29 -51 112 -82 183 -32 72 -68 153 -80 180 -13 28 -37 84 -55 125 -18 41
-46 104 -62 140 -68 147 -110 245 -106 245 1 0 -7 18 -19 40 -11 22 -33 69
-49 105 -15 36 -43 99 -62 140 -39 86 -37 82 -132 300 -40 91 -88 196 -106
235 -19 38 -34 73 -34 77 0 4 -17 45 -38 90 -22 46 -70 153 -107 238 -38 85
-80 182 -96 215 -51 113 -69 154 -69 158 0 2 -14 35 -32 73 -17 38 -32 73 -32
77 -1 4 -5 11 -11 15 -5 4 -11 14 -13 22 -7 38 -57 138 -66 133 -5 -3 -6 -1
-2 6 4 6 2 19 -6 28 -7 9 -11 18 -9 20 8 9 -143 332 -152 326 -6 -4 -7 -1 -3
6 7 11 -81 228 -126 309 -10 18 -18 39 -18 48 0 9 -5 12 -12 8 -6 -4 -8 -3 -5
4 4 5 -6 39 -22 74 -29 64 -55 123 -97 216 -13 29 -24 54 -24 56 0 2 -19 44
-42 93 -22 48 -42 93 -43 98 -2 6 -16 40 -33 75 -17 36 -45 98 -62 139 -18 40
-47 108 -66 150 -46 101 -44 96 -112 251 -33 74 -71 160 -85 190 -13 30 -28
65 -32 78 -8 28 -22 28 -31 0z"/>
<path d="M5637 3118 c-7 -4 -12 -41 -12 -98 l0 -90 108 0 107 0 0 -92 c1 -51
1 -183 2 -293 0 -166 4 -208 19 -252 41 -121 121 -182 250 -191 68 -4 168 9
220 29 l26 10 -25 90 -26 89 -35 -7 c-90 -18 -157 4 -171 58 -4 13 -6 187 -6
387 1 315 -1 362 -14 363 -75 5 -434 2 -443 -3z"/>
<path d="M2206 3052 c-2 -4 -5 -216 -5 -470 l0 -462 104 0 103 0 -3 218 c-2
119 -6 244 -9 277 -3 33 -8 87 -11 120 l-5 60 25 -90 c41 -148 95 -328 99
-332 3 -3 28 -6 58 -6 l53 -2 62 215 62 215 -5 -80 c-3 -44 -7 -102 -10 -130
-3 -27 -7 -143 -9 -257 l-3 -208 104 0 104 0 0 469 0 470 -127 -2 -127 -2 -43
-170 c-49 -194 -51 -203 -53 -230 l-1 -20 -9 20 c-5 11 -30 107 -55 213 l-47
192 -123 0 c-68 0 -126 -4 -129 -8z"/>
<path d="M7329 3028 c0 -18 -1 -64 -2 -101 -1 -38 2 -72 8 -75 5 -3 66 -6 135
-7 l125 0 1 -360 0 -360 125 -3 126 -3 0 363 -1 363 125 1 c68 1 130 2 137 3
9 1 12 27 10 104 l-3 102 -392 3 -393 2 -1 -32z"/>
<path d="M4193 2850 c-61 -13 -133 -47 -167 -78 -85 -80 -85 -218 1 -293 38
-34 136 -72 238 -94 86 -18 125 -37 125 -60 0 -22 -35 -36 -93 -36 -74 -1
-121 9 -205 43 -83 34 -68 41 -138 -59 -19 -29 -33 -57 -29 -63 10 -17 94 -56
170 -79 216 -67 452 -12 521 121 35 67 22 172 -28 225 -33 36 -112 69 -244
102 -127 32 -145 42 -128 69 24 37 148 30 243 -13 30 -14 58 -22 62 -18 22 23
99 128 99 135 0 17 -142 85 -200 95 -56 10 -188 11 -227 3z"/>
<path d="M5100 2845 c-84 -24 -141 -56 -195 -110 -73 -72 -98 -130 -103 -236
-8 -170 66 -295 215 -361 54 -24 71 -28 163 -35 73 -6 163 14 246 52 80 38 83
46 40 110 -20 30 -36 59 -36 64 0 5 -6 14 -14 20 -11 10 -26 6 -67 -15 -90
-45 -199 -35 -252 24 -60 66 -53 197 11 255 53 48 157 55 232 17 24 -12 45
-18 49 -13 3 5 28 40 55 77 l50 69 -30 24 c-77 61 -251 89 -364 58z"/>
<path d="M6780 2845 c-167 -47 -273 -180 -279 -350 -3 -107 45 -233 111 -291
103 -88 257 -123 400 -90 77 18 178 60 178 75 0 6 -13 33 -30 61 -16 28 -30
55 -30 60 0 20 -23 20 -86 0 -131 -40 -239 -14 -283 68 -9 17 -9 22 1 23 7 0
111 0 230 -1 148 0 219 3 223 10 13 21 7 157 -10 217 -38 134 -149 220 -295
229 -49 2 -94 -1 -130 -11z m186 -207 c12 -13 25 -33 29 -45 7 -26 13 -25
-115 -25 -118 0 -120 0 -120 15 0 20 41 64 70 76 39 16 111 5 136 -21z"/>
<path d="M8495 2850 c-68 -17 -128 -52 -185 -110 -74 -75 -95 -133 -95 -260 0
-127 21 -186 95 -260 95 -96 219 -137 342 -111 219 45 341 241 291 466 -26
112 -92 193 -200 245 -69 34 -178 47 -248 30z m151 -211 c35 -29 48 -73 48
-159 0 -116 -26 -166 -93 -175 -89 -11 -132 47 -132 175 0 128 39 181 129 174
18 -1 40 -8 48 -15z"/>
<path d="M3072 2563 c3 -252 5 -283 24 -328 27 -66 63 -101 125 -121 91 -30
213 -1 276 67 16 16 31 29 35 29 4 0 10 -20 14 -45 l6 -45 103 0 104 0 0 360
0 360 -124 0 c-93 0 -125 -3 -126 -12 -1 -7 -2 -113 -3 -234 -1 -203 -3 -224
-20 -243 -34 -38 -120 -47 -145 -17 -17 21 -19 52 -20 284 l-1 222 -126 0
-125 0 3 -277z"/>
<path d="M9050 2831 c0 -9 111 -324 160 -456 10 -27 35 -96 56 -153 l37 -103
145 3 144 3 89 255 c49 140 103 296 120 345 17 50 33 96 35 103 4 9 -22 12
-115 12 l-120 0 -9 -32 c-5 -18 -35 -118 -65 -223 -31 -104 -59 -207 -62 -227
-4 -21 -11 -38 -15 -38 -4 0 -21 53 -39 118 -17 64 -50 180 -74 257 l-43 140
-122 3 c-74 2 -122 -1 -122 -7z"/>
</g>
</svg>
